<svg id="Layer_1" data-name="Layer 1" xmlns="http://www.w3.org/2000/svg" viewBox="0 0 1080 1080"><defs><style>.cls-1{fill:#fffcf7;}.cls-2{fill:#1c2826;}.cls-3{fill:red;}.cls-4{fill:lime;}.cls-5{fill:blue;}</style></defs><rect class="cls-1" y="519.89" width="1080" height="560.11"/><path class="cls-2" d="M146.35,845.88V754H54.49V570.29h91.86V754H330.07v91.87Zm0,0V1029.6H54.49V845.88ZM421.93,570.29V754H330.07V570.29ZM330.07,845.88h91.86V1029.6H330.07Z"/><path class="cls-2" d="M1025.51,570.29V937.74H887.72v91.86H795.86V937.74H658.07V570.29h91.86V845.88H933.65V570.29Z"/><path class="cls-3" d="M321,321H214V214H321ZM107.77,0V107H214V0H321V107H214V214H107V107H.76V0ZM107,214V321H0V214Z"/><path class="cls-4" d="M700.5,321h-107V214h107ZM487.27,0V107H593.5V0h107V107h-107V214h-107V107H380.26V0Zm-.77,214V321h-107V214Z"/><path class="cls-5" d="M1080,321H973V214h107ZM866.76,0V107H973V0h107V107H973V214H866V107H759.76V0ZM866,214V321H759V214Z"/></svg>