<?xml version="1.0" encoding="utf-8"?>
<!-- Generator: Adobe Illustrator 25.4.1, SVG Export Plug-In . SVG Version: 6.00 Build 0)  -->
<svg version="1.1" id="Layer_1" xmlns="http://www.w3.org/2000/svg" xmlns:xlink="http://www.w3.org/1999/xlink" x="0px" y="0px"
	 viewBox="0 0 667.5 394.4" style="enable-background:new 0 0 667.5 394.4;" xml:space="preserve">
<style type="text/css">
	.st0{fill:#1C2826;}
	.st1{fill:#FF0000;}
	.st2{fill:#00FF00;}
	.st3{fill:#0000FF;}
	.st4{fill:#FFFCF7;}
</style>
<path class="st0" d="M0,244.5h78.5v71.5H19.6v58.9h58.9v19.6H0V244.5z"/>
<path class="st0" d="M176.7,266.3v128.1H98.2V266.3H176.7z M157.1,374.8v-58.9h-39.3v58.9H157.1z"/>
<path class="st0" d="M216,315.9v58.9h39.3v19.6h-58.9V266.3h58.9v49.6H216z M255.3,315.9h19.6v58.9h-19.7L255.3,315.9z"/>
<path class="st0" d="M294.5,266.3H373v49.6h-58.9v19.6h39.3v19.6h-39.3v19.6H373v19.6h-78.5V266.3z"/>
<path class="st0" d="M412.3,266.3v108.5h58.9v19.6h-78.5V266.3H412.3z"/>
<path class="st0" d="M569.3,266.3v128.1h-19.6v-19.6h-39.3v19.6h-19.6V266.3H569.3z M549.7,355.2v-39.3h-39.3v39.3L549.7,355.2z"/>
<path class="st0" d="M589,266.3h58.9v69.3h19.6v58.9H589V266.3z M628.3,335.6v-19.6h-19.7v19.6H628.3z M647.9,374.8v-19.6h-39.3
	v19.6L647.9,374.8z"/>
<path class="st1" d="M647.6,185.8v19.6h-19.6v-19.6H647.6z M588.9,224.8h19.6v-19.4h-19.6v-19.6h19.6v19.6h19.6v19.6h-19.6v19.4
	h-19.6V224.8z M628.1,224.9h19.6v19.6h-19.6V224.9z"/>
<path class="st2" d="M647.6,92.6v19.6h-19.6V92.6H647.6z M588.9,131.6h19.6v-19.4h-19.6V92.6h19.6v19.6h19.6v19.6h-19.6v19.4h-19.6
	V131.6z M628.1,131.7h19.6v19.6h-19.6V131.7z"/>
<path class="st3" d="M647.6,0v19.6h-19.6V0H647.6z M588.9,39h19.6V19.6h-19.6V0h19.6v19.6h19.6v19.6h-19.6v19.4h-19.6V39z
	 M628.1,39.1h19.6v19.6h-19.6V39.1z"/>
<rect x="96.8" class="st0" width="471.4" height="244.5"/>
<path class="st4" d="M160.6,142.3v-40.1h-40.1V22h40.1v80.2h80.2v40.1H160.6z M160.6,142.3v80.2h-40.1v-80.2H160.6z M280.9,22v80.2
	h-40.1V22H280.9z M240.8,142.3h40.1v80.2h-40.1V142.3z"/>
<path class="st4" d="M544.4,22v160.4h-60.1v40.1h-40.1v-40.1H384V22h40.1v120.3h80.2V22H544.4z"/>
</svg>
