<svg id="Layer_1" data-name="Layer 1" xmlns="http://www.w3.org/2000/svg" viewBox="0 0 667.49 394.44"><defs><style>.cls-1{fill:#fffcf7;}.cls-2{fill:red;}.cls-3{fill:lime;}.cls-4{fill:blue;}.cls-5{fill:#1c2826;}</style></defs><path class="cls-1" d="M0,244.46H78.52v71.46H19.63v58.89H78.52v19.63H0Z"/><path class="cls-1" d="M176.7,266.29V394.44H98.18V266.29ZM157.07,374.81V315.92H117.81v58.89Z"/><path class="cls-1" d="M216,315.92v58.89h39.26v19.63H196.33V266.29h58.89v49.63Zm39.26,0h19.63v58.89H255.22Z"/><path class="cls-1" d="M294.5,266.29H373v49.63H314.13v19.63h39.26v19.63H314.13v19.63H373v19.63H294.5Z"/><path class="cls-1" d="M412.28,266.29V374.81h58.89v19.63H392.65V266.29Z"/><path class="cls-1" d="M569.33,266.29V394.44H549.7V374.81H510.44v19.63H490.81V266.29ZM549.7,355.18V315.92H510.44v39.26Z"/><path class="cls-1" d="M589,266.29h58.89v69.26h19.63v58.89H589Zm39.26,69.26V315.92H608.6v19.63Zm19.63,39.26V355.18H608.6v19.63Z"/><path class="cls-2" d="M647.63,185.75v19.57H628.06V185.75Zm-58.7,39h19.56V205.32H588.93V185.75h19.56v19.57h19.57v19.57H608.49v19.43H588.93Zm39.13.14h19.57v19.57H628.06Z"/><path class="cls-3" d="M647.63,92.56v19.56H628.06V92.56Zm-58.7,39h19.56V112.12H588.93V92.56h19.56v19.56h19.57v19.57H608.49v19.43H588.93Zm39.13.14h19.57v19.57H628.06Z"/><path class="cls-4" d="M647.63,0V19.57H628.06V0Zm-58.7,39h19.56V19.57H588.93V0h19.56V19.57h19.57V39.14H608.49V58.57H588.93Zm39.13.14h19.57V58.71H628.06Z"/><rect class="cls-1" x="96.78" width="471.36" height="244.46"/><path class="cls-5" d="M160.65,142.28v-40.1H120.56V22h40.09v80.18h80.19v40.1Zm0,0v80.18H120.56V142.28ZM280.93,22v80.18H240.84V22ZM240.84,142.28h40.09v80.18H240.84Z"/><path class="cls-5" d="M544.36,22V182.37H484.22v40.09H444.13V182.37H384V22h40.09V142.28h80.19V22Z"/></svg>