<svg id="Layer_1" data-name="Layer 1" xmlns="http://www.w3.org/2000/svg" viewBox="0 0 1080 1080"><defs><style>.cls-1{fill:#fffcf7;}.cls-2{fill:#1c2826;}</style></defs><polygon class="cls-1" points="817.67 570.75 817.67 709.39 719.41 709.39 719.41 903 574.45 903 574.45 778.88 504.96 778.88 504.96 903 360 903 360 709.39 261.75 709.39 261.75 570.75 360 570.75 360 570.43 719.41 570.43 719.41 570.75 817.67 570.75"/><rect class="cls-1" x="262.36" y="177" width="555.89" height="288.29"/><path class="cls-2" d="M337.69,344.79V297.51H290.41V202.94h47.28v94.57h94.57v47.28Zm0,0v94.56H290.41V344.79ZM479.54,202.94v94.57H432.26V202.94ZM432.26,344.79h47.28v94.56H432.26Z"/><path class="cls-2" d="M790.21,202.94V392.07H719.28v47.28H672V392.07H601.08V202.94h47.28V344.79h94.57V202.94Z"/></svg>